<mxfile host="app.diagrams.net" modified="2023-11-18T11:33:58.965Z" agent="Mozilla/5.0 (Windows NT 10.0; Win64; x64) AppleWebKit/537.36 (KHTML, like Gecko) Chrome/119.0.0.0 Safari/537.36 Edg/119.0.0.0" version="22.1.3" etag="BoV6VCfHVCAhtMXU7tE-" type="google">
  <diagram id="7sEIVqTpofKqwGGnpXk_" name="Page-1">
    <mxGraphModel grid="1" page="0" gridSize="10" guides="1" tooltips="1" connect="1" arrows="1" fold="1" pageScale="1" pageWidth="1200" pageHeight="1920" background="none" math="0" shadow="0">
      <root>
        <mxCell id="0" />
        <mxCell id="1" parent="0" />
        <mxCell id="mSwwxAK-ATTg9_K1AFN2-1" value="viewmodels" style="shape=folder;fontStyle=1;tabWidth=150;tabHeight=30;tabPosition=left;html=1;boundedLbl=1;labelInHeader=1;container=1;collapsible=0;whiteSpace=wrap;fontSize=20;strokeWidth=4;" vertex="1" parent="1">
          <mxGeometry x="-1600" y="-630" width="1370" height="1360" as="geometry" />
        </mxCell>
        <mxCell id="mSwwxAK-ATTg9_K1AFN2-2" value="" style="html=1;strokeColor=none;resizeWidth=1;resizeHeight=1;fillColor=none;part=1;connectable=0;allowArrows=0;deletable=0;whiteSpace=wrap;" vertex="1" parent="mSwwxAK-ATTg9_K1AFN2-1">
          <mxGeometry width="1369.9999999999998" height="951.9999999999999" relative="1" as="geometry">
            <mxPoint y="30" as="offset" />
          </mxGeometry>
        </mxCell>
        <mxCell id="node1" value="&lt;p style=&quot;margin:0px;margin-top:4px;text-align:center;&quot;&gt;&lt;i&gt;&amp;lt;&amp;lt;interface&amp;gt;&amp;gt;&lt;/i&gt;&lt;br/&gt;&lt;b&gt;HistoryMixin&lt;/b&gt;&lt;/p&gt;&lt;hr size=&quot;1&quot;/&gt;&lt;p style=&quot;margin:0 0 0 4px;line-height:1.6;&quot;&gt;+ modifyHistory((List&amp;lt;Location&amp;gt;) -&amp;gt; List&amp;lt;Location&amp;gt;): Unit&lt;/p&gt;&lt;hr size=&quot;1&quot;/&gt;&lt;p style=&quot;margin:0 0 0 4px;line-height:1.6;&quot;&gt; history: StateFlow&amp;lt;List&amp;lt;Location&amp;gt;&amp;gt;&lt;/p&gt;" style="verticalAlign=top;align=left;overflow=fill;fontSize=14;fontFamily=Helvetica;html=1;rounded=0;shadow=0;comic=0;labelBackgroundColor=none;strokeWidth=1;" vertex="1" parent="mSwwxAK-ATTg9_K1AFN2-1">
          <mxGeometry x="917" y="79" width="393" height="110" as="geometry" />
        </mxCell>
        <mxCell id="node7" value="&lt;p style=&quot;margin:0px;margin-top:4px;text-align:center;&quot;&gt;&lt;b&gt;HistoryViewModel&lt;/b&gt;&lt;/p&gt;&lt;hr size=&quot;1&quot;/&gt;&lt;p style=&quot;margin:0 0 0 4px;line-height:1.6;&quot;&gt;+ deleteVisitedHistory(StoredLocation): Unit&lt;br/&gt;+ purgeSearchHistory(): Unit&lt;br/&gt;+ deleteSearchHistory(StoredLocation): Unit&lt;br/&gt;+ updateSearchHistory(StoredLocation): Unit&lt;br/&gt;+ suspend  getHistory(): Unit&lt;br/&gt;+ suspend  getSearchHistory(): Unit&lt;br/&gt;+ updateHistory(StoredLocation): Unit&lt;br/&gt;+ purgeLocationHistory(): Unit&lt;/p&gt;&lt;hr size=&quot;1&quot;/&gt;&lt;p style=&quot;margin:0 0 0 4px;line-height:1.6;&quot;&gt; recentSearch: StateFlow&amp;lt;List&amp;lt;StoredLocation&amp;gt;&amp;gt;&lt;br/&gt; search_dao: SearchHistoryDao&lt;br/&gt; dao: VisitedLocationsDao&lt;br/&gt; applicationContext: Context&lt;br/&gt; state: StateFlow&amp;lt;List&amp;lt;StoredLocation&amp;gt;&amp;gt;&lt;/p&gt;" style="verticalAlign=top;align=left;overflow=fill;fontSize=14;fontFamily=Helvetica;html=1;rounded=0;shadow=0;comic=0;labelBackgroundColor=none;strokeWidth=1;" vertex="1" parent="mSwwxAK-ATTg9_K1AFN2-1">
          <mxGeometry x="947" y="742" width="350" height="352" as="geometry" />
        </mxCell>
        <mxCell id="node3" value="&lt;p style=&quot;margin:0px;margin-top:4px;text-align:center;&quot;&gt;&lt;i&gt;&amp;lt;&amp;lt;interface&amp;gt;&amp;gt;&lt;/i&gt;&lt;br/&gt;&lt;b&gt;MapMixin&lt;/b&gt;&lt;/p&gt;&lt;hr size=&quot;1&quot;/&gt;" style="verticalAlign=top;align=left;overflow=fill;fontSize=14;fontFamily=Helvetica;html=1;rounded=0;shadow=0;comic=0;labelBackgroundColor=none;strokeWidth=1;" vertex="1" parent="mSwwxAK-ATTg9_K1AFN2-1">
          <mxGeometry x="20" y="169" width="125" height="35" as="geometry" />
        </mxCell>
        <mxCell id="node4" value="&lt;p style=&quot;margin:0px;margin-top:4px;text-align:center;&quot;&gt;&lt;b&gt;MapViewModel&lt;/b&gt;&lt;/p&gt;&lt;hr size=&quot;1&quot;/&gt;&lt;p style=&quot;margin:0 0 0 4px;line-height:1.6;&quot;&gt;+ display(CarparkAvailability): Unit&lt;br/&gt;+ recenter(): Unit&lt;br/&gt;+ togglePrompt(): Unit&lt;br/&gt;+ togglePopup(): Unit&lt;br/&gt;+ toggleBottomSheet(): Unit&lt;br/&gt;+ recentered(): Unit&lt;br/&gt;+ onFilterChanged(NamedFilter): Unit&lt;br/&gt;+ modifyFilters((NamedFilters) -&amp;gt; NamedFilters): Unit&lt;br/&gt;+ moveMapCamera(Coordinate): Unit&lt;br/&gt;+ onSortStrategyChanged(SortingStrategy): Unit&lt;br/&gt;+ getCarparkDetails(): Unit&lt;br/&gt;+ init(): Unit&lt;br/&gt;+ getUserLocation(): Unit&lt;br/&gt;+ isRecentering(): StateFlow&amp;lt;Boolean&amp;gt;&lt;br/&gt;+ gotoLocation(Location): Unit&lt;br/&gt;+ gotoLocation(Coordinate): Unit&lt;br/&gt;+ hide(): Unit&lt;br/&gt;+ logVisit(): Unit&lt;br/&gt;+ redirectGoogleMaps(): Unit&lt;br/&gt;- hasPermission(Context, String): Boolean&lt;br/&gt;- requestLocationPermissions(): Boolean&lt;br/&gt;- guard(suspend (CoroutineScope) -&amp;gt; Unit): Unit&lt;br/&gt;- onAuthFailed(): Unit&lt;br/&gt;- updateNearbyCarparks(IOFlow&amp;lt;CarparkAvailability&amp;gt;): Unit&lt;/p&gt;&lt;hr size=&quot;1&quot;/&gt;&lt;p style=&quot;margin:0 0 0 4px;line-height:1.6;&quot;&gt; sortingStrategy: StateFlow&amp;lt;SortingStrategy&amp;gt;&lt;br/&gt; finalCarparks: Flow&amp;lt;List&amp;lt;CarparkAvailability&amp;gt;&amp;gt;&lt;br/&gt; displayState: StateFlow&amp;lt;Boolean&amp;gt;&lt;br/&gt; mapUIState: StateFlow&amp;lt;MapUIState&amp;gt;&lt;br/&gt; btmSheetState: StateFlow&amp;lt;Boolean&amp;gt;&lt;br/&gt; searchRadius: StateFlow&amp;lt;Int&amp;gt;&lt;br/&gt; coordinate: StateFlow&amp;lt;Coordinate&amp;gt;&lt;br/&gt; mapCoords: StateFlow&amp;lt;Coordinate&amp;gt;&lt;br/&gt; displayCarpark: StateFlow&amp;lt;CarparkAvailability&amp;gt;&lt;br/&gt; carpark: MutableStateFlow&amp;lt;CarparkAvailability&amp;gt;&lt;br/&gt; customLocations: StateFlow&amp;lt;List&amp;lt;StoredLocation&amp;gt;&amp;gt;&lt;br/&gt; filters: Flow&amp;lt;NamedFilters&amp;gt;&lt;br/&gt; vehicle: StateFlow&amp;lt;VehicleType&amp;gt;&lt;br/&gt; userCoordinate: StateFlow&amp;lt;Coordinate&amp;gt;&lt;br/&gt; nearbyCarparks: StateFlow&amp;lt;List&amp;lt;CarparkAvailability&amp;gt;&amp;gt;&lt;br/&gt; promptState: StateFlow&amp;lt;Boolean&amp;gt;&lt;br/&gt; service: NavigationService&lt;/p&gt;" style="verticalAlign=top;align=left;overflow=fill;fontSize=14;fontFamily=Helvetica;html=1;rounded=0;shadow=0;comic=0;labelBackgroundColor=none;strokeWidth=1;" vertex="1" parent="mSwwxAK-ATTg9_K1AFN2-1">
          <mxGeometry x="494" y="246" width="400" height="980" as="geometry" />
        </mxCell>
        <mxCell id="node2" value="&lt;p style=&quot;margin:0px;margin-top:4px;text-align:center;&quot;&gt;&lt;i&gt;&amp;lt;&amp;lt;interface&amp;gt;&amp;gt;&lt;/i&gt;&lt;br/&gt;&lt;b&gt;NearbyCarparkMixin&lt;/b&gt;&lt;/p&gt;&lt;hr size=&quot;1&quot;/&gt;&lt;p style=&quot;margin:0 0 0 4px;line-height:1.6;&quot;&gt;+ modifyFilters((NamedFilters) -&amp;gt; NamedFilters): Unit&lt;/p&gt;&lt;hr size=&quot;1&quot;/&gt;&lt;p style=&quot;margin:0 0 0 4px;line-height:1.6;&quot;&gt; sortingStrategy: StateFlow&amp;lt;SortingStrategy&amp;gt;&lt;br/&gt; finalCarparks: Flow&amp;lt;List&amp;lt;CarparkAvailability&amp;gt;&amp;gt;&lt;br/&gt; nearbyCarparks: StateFlow&amp;lt;List&amp;lt;CarparkAvailability&amp;gt;&amp;gt;&lt;br/&gt; filters: Flow&amp;lt;NamedFilters&amp;gt;&lt;/p&gt;" style="verticalAlign=top;align=left;overflow=fill;fontSize=14;fontFamily=Helvetica;html=1;rounded=0;shadow=0;comic=0;labelBackgroundColor=none;strokeWidth=1;" vertex="1" parent="mSwwxAK-ATTg9_K1AFN2-1">
          <mxGeometry x="921" y="246" width="386" height="160" as="geometry" />
        </mxCell>
        <mxCell id="node0" value="&lt;p style=&quot;margin:0px;margin-top:4px;text-align:center;&quot;&gt;&lt;i&gt;&amp;lt;&amp;lt;interface&amp;gt;&amp;gt;&lt;/i&gt;&lt;br/&gt;&lt;b&gt;PreferencesMixin&lt;/b&gt;&lt;/p&gt;&lt;hr size=&quot;1&quot;/&gt;&lt;p style=&quot;margin:0 0 0 4px;line-height:1.6;&quot;&gt; customLocations: StateFlow&amp;lt;List&amp;lt;StoredLocation&amp;gt;&amp;gt;&lt;br/&gt; vehicle: StateFlow&amp;lt;VehicleType&amp;gt;&lt;br/&gt; searchRadius: StateFlow&amp;lt;Int&amp;gt;&lt;/p&gt;" style="verticalAlign=top;align=left;overflow=fill;fontSize=14;fontFamily=Helvetica;html=1;rounded=0;shadow=0;comic=0;labelBackgroundColor=none;strokeWidth=1;" vertex="1" parent="mSwwxAK-ATTg9_K1AFN2-1">
          <mxGeometry x="60" y="246" width="350" height="130" as="geometry" />
        </mxCell>
        <mxCell id="node5" value="&lt;p style=&quot;margin:0px;margin-top:4px;text-align:center;&quot;&gt;&lt;b&gt;SearchViewModel&lt;/b&gt;&lt;/p&gt;&lt;hr size=&quot;1&quot;/&gt;&lt;p style=&quot;margin:0 0 0 4px;line-height:1.6;&quot;&gt;+ isSearching(): StateFlow&amp;lt;Boolean&amp;gt;&lt;br/&gt;+ modifyHistory((List&amp;lt;Location&amp;gt;) -&amp;gt; List&amp;lt;Location&amp;gt;): Unit&lt;br/&gt;+ onSearchTextChange(String): Unit&lt;br/&gt;+ updateHistory(Location): Unit&lt;br/&gt;+ clearText(): Unit&lt;br/&gt;- suspend  searchAndUpdate(String): IOFlow&amp;lt;Location&amp;gt;&lt;/p&gt;&lt;hr size=&quot;1&quot;/&gt;&lt;p style=&quot;margin:0 0 0 4px;line-height:1.6;&quot;&gt; searchResults: List&amp;lt;() -&amp;gt; Location&amp;gt;&lt;br/&gt; query: StateFlow&amp;lt;String&amp;gt;&lt;br/&gt; focused: Boolean&lt;br/&gt; history: StateFlow&amp;lt;List&amp;lt;Location&amp;gt;&amp;gt;&lt;/p&gt;" style="verticalAlign=top;align=left;overflow=fill;fontSize=14;fontFamily=Helvetica;html=1;rounded=0;shadow=0;comic=0;labelBackgroundColor=none;strokeWidth=1;" vertex="1" parent="mSwwxAK-ATTg9_K1AFN2-1">
          <mxGeometry x="946" y="434" width="393" height="280" as="geometry" />
        </mxCell>
        <mxCell id="node6" value="&lt;p style=&quot;margin:0px;margin-top:4px;text-align:center;&quot;&gt;&lt;b&gt;SettingsViewModel&lt;/b&gt;&lt;/p&gt;&lt;hr size=&quot;1&quot;/&gt;&lt;p style=&quot;margin:0 0 0 4px;line-height:1.6;&quot;&gt;+ editWorkName(String): Unit&lt;br/&gt;+ editSliderPos(Float): Unit&lt;br/&gt;+ getShownOther(): StateFlow&amp;lt;Int&amp;gt;&lt;br/&gt;+ editWorkAddress(String): Unit&lt;br/&gt;+ editHomeName(String): Unit&lt;br/&gt;+ getOtherAddress(Int): String&lt;br/&gt;+ addLocation(String, String): Unit&lt;br/&gt;+ onDismissDialog(): Unit&lt;br/&gt;+ changeShownOther(Int): Unit&lt;br/&gt;+ getOtherName(Int): String&lt;br/&gt;+ editOtherAddress(Int, String): Unit&lt;br/&gt;+ onOtherClick(): Unit&lt;br/&gt;+ updateSavedLocationList(): List&amp;lt;StoredLocation&amp;gt;&lt;br/&gt;+ getSliderLowerBound(): StateFlow&amp;lt;Float&amp;gt;&lt;br/&gt;+ setOtherLocation(Int, Location): Unit&lt;br/&gt;+ onLocClick(): Unit&lt;br/&gt;+ editHomeAddress(String): Unit&lt;br/&gt;+ getSliderUpperBound(): StateFlow&amp;lt;Float&amp;gt;&lt;br/&gt;+ editSelectedOptionText(String): Unit&lt;br/&gt;+ editOtherName(Int, String): Unit&lt;br/&gt;+ setupInitial(): Unit&lt;/p&gt;&lt;hr size=&quot;1&quot;/&gt;&lt;p style=&quot;margin:0 0 0 4px;line-height:1.6;&quot;&gt; selectedLocation: StateFlow&amp;lt;Boolean&amp;gt;&lt;br/&gt; selectedOptionText: StateFlow&amp;lt;String&amp;gt;&lt;br/&gt; dialogShown: Boolean&lt;br/&gt; homeData: StateFlow&amp;lt;SavedItem&amp;gt;&lt;br/&gt; sliderUpperBound: Float&lt;br/&gt; sliderPosition: StateFlow&amp;lt;Float&amp;gt;&lt;br/&gt; init: Boolean&lt;br/&gt; shownOther: Int&lt;br/&gt; otherShown: Boolean&lt;br/&gt; searchRadius: StateFlow&amp;lt;Int&amp;gt;&lt;br/&gt; user_dao: UserLocationsDao&lt;br/&gt; otherData: StateFlow&amp;lt;List&amp;lt;OtherItem&amp;gt;&amp;gt;&lt;br/&gt; customLocations: StateFlow&amp;lt;List&amp;lt;StoredLocation&amp;gt;&amp;gt;&lt;br/&gt; vehicle: StateFlow&amp;lt;VehicleType&amp;gt;&lt;br/&gt; workLocation: Location&lt;br/&gt; workData: StateFlow&amp;lt;SavedItem&amp;gt;&lt;br/&gt; homeLocation: Location&lt;br/&gt; sliderLowerBound: Float&lt;/p&gt;" style="verticalAlign=top;align=left;overflow=fill;fontSize=14;fontFamily=Helvetica;html=1;rounded=0;shadow=0;comic=0;labelBackgroundColor=none;strokeWidth=1;" vertex="1" parent="mSwwxAK-ATTg9_K1AFN2-1">
          <mxGeometry x="100" y="404" width="350" height="940" as="geometry" />
        </mxCell>
        <mxCell id="edge1" value="" style="html=1;rounded=1;edgeStyle=orthogonalEdgeStyle;dashed=0;startArrow=none;endArrow=block;endSize=12;strokeColor=#008200;exitX=0.740;exitY=1.001;exitDx=0;exitDy=0;entryX=0.500;entryY=0.000;entryDx=0;entryDy=0;" edge="1" parent="mSwwxAK-ATTg9_K1AFN2-1" source="node3" target="node2">
          <mxGeometry width="50" height="50" relative="1" as="geometry">
            <Array as="points">
              <mxPoint x="112" y="221" />
              <mxPoint x="1114" y="221" />
            </Array>
          </mxGeometry>
        </mxCell>
        <mxCell id="edge0" value="" style="html=1;rounded=1;dashed=0;startArrow=none;endArrow=block;endSize=12;strokeColor=#008200;exitX=0.580;exitY=1.001;exitDx=0;exitDy=0;entryX=0.087;entryY=0.000;entryDx=0;entryDy=0;edgeStyle=orthogonalEdgeStyle;curved=1;" edge="1" parent="mSwwxAK-ATTg9_K1AFN2-1" source="node3" target="node0">
          <mxGeometry width="50" height="50" relative="1" as="geometry" />
        </mxCell>
        <mxCell id="edge4" value="" style="html=1;rounded=1;edgeStyle=orthogonalEdgeStyle;dashed=1;startArrow=none;endArrow=block;endSize=12;strokeColor=#008200;exitX=0.500;exitY=0.000;exitDx=0;exitDy=0;entryX=0.660;entryY=1.002;entryDx=0;entryDy=0;" edge="1" parent="mSwwxAK-ATTg9_K1AFN2-1" source="node4" target="node3">
          <mxGeometry width="50" height="50" relative="1" as="geometry">
            <Array as="points">
              <mxPoint x="697" y="231" />
              <mxPoint x="102" y="231" />
            </Array>
          </mxGeometry>
        </mxCell>
        <mxCell id="edge2" value="" style="html=1;rounded=1;edgeStyle=orthogonalEdgeStyle;dashed=1;startArrow=none;endArrow=block;endSize=12;strokeColor=#008200;exitX=0.972;exitY=0.000;exitDx=0;exitDy=0;entryX=1;entryY=0;entryDx=0;entryDy=0;" edge="1" parent="mSwwxAK-ATTg9_K1AFN2-1" source="node5" target="node1">
          <mxGeometry width="50" height="50" relative="1" as="geometry">
            <Array as="points">
              <mxPoint x="1328" y="60" />
              <mxPoint x="1310" y="60" />
            </Array>
          </mxGeometry>
        </mxCell>
        <mxCell id="edge3" value="" style="html=1;rounded=1;edgeStyle=orthogonalEdgeStyle;dashed=1;startArrow=none;endArrow=block;endSize=12;strokeColor=#008200;exitX=0.393;exitY=0.000;exitDx=0;exitDy=0;entryX=0.500;entryY=1.000;entryDx=0;entryDy=0;" edge="1" parent="mSwwxAK-ATTg9_K1AFN2-1" source="node6" target="node0">
          <mxGeometry width="50" height="50" relative="1" as="geometry">
            <Array as="points" />
          </mxGeometry>
        </mxCell>
      </root>
    </mxGraphModel>
  </diagram>
</mxfile>
